<?xml version="1.0" encoding="utf-8"?>
<!-- created with bpmn-js / http://bpmn.io -->
<!DOCTYPE svg PUBLIC "-//W3C//DTD SVG 1.1//EN" "http://www.w3.org/Graphics/SVG/1.1/DTD/svg11.dtd">
<svg xmlns="http://www.w3.org/2000/svg" xmlns:xlink="http://www.w3.org/1999/xlink" width="1035" height=" 845.40625" viewBox="-259 -120.40625 1035 705.40625" version="1.1"><defs><marker id="activity-black-#000000-5tjjbq104r3jm8kew44rhv48a" viewBox="0 0 20 20" refX="11" refY="10" markerWidth="10" markerHeight="10" orient="auto"><path d="M 1 5 L 11 10 L 1 15 Z" style="fill: rgb(0, 0, 0); stroke-width: 1px; stroke-linecap: round; stroke-dasharray: 10000, 1; stroke: rgb(0, 0, 0);"/></marker></defs><g class="djs-group"><g class="djs-element djs-shape" style = "display:block" transform="translate(-249 -130.40625)"><g class="djs-visual"><text lineHeight="1.2" class="djs-label" style="font-family: Arial, sans-serif; font-size: 30; font-weight: normal; fill: rgb(0, 0, 0);"><tspan x="8" y="55" font-size="30">2 - LeasingNinja Sales (fine grained)</tspan></text><text lineHeight="1.2" class="djs-label" style="font-family: Arial, sans-serif; font-size: 12; font-weight: normal; fill: rgb(0, 0, 0);"><tspan x="8" y="75" font-size="12"></tspan></text></g></g></g><g class="djs-group"><g class="djs-element djs-connection" data-element-id="connection_7070" style="display: block;"><g class="djs-visual"><polyline points="118,85 -19,124 " style="stroke: rgb(0, 0, 0); fill: none; stroke-width: 1.5px; stroke-linejoin: round; marker-end: url('#activity-black-#000000-5tjjbq104r3jm8kew44rhv48a');"/><text lineHeight="1.2" wordWrap="break-word" overflowWrap="break-word" hyphens="auto" class="djs-label" style="font-family: Arial, sans-serif; font-size: 11px; font-weight: normal; fill: black;"><tspan x="64.38278580239495" y="114.20328518563036">fills out</tspan></text><text lineHeight="1.2" position="absolute" class="djs-labelNumber" style="font-family: Courier; font-size: 150px; font-weight: normal; fill: rgb(66, 174, 187);"><tspan x="-0.6172141976050582" y="95.20328518563036">.</tspan></text><text lineHeight="1.2" backgroundColor="green" position="absolute" class="djs-labelNumber" style="font-family: Arial, sans-serif; font-size: 11px; font-weight: normal; fill: black;"><tspan x="38.38278580239494" y="90.20328518563036">01</tspan></text></g><polyline points="118,85 -19,124 " class="djs-hit" style="fill: none; stroke-opacity: 0; stroke: white; stroke-width: 15px;"/><rect x="-25" y="79" width="149" height="51" class="djs-outline" style="fill: none;"/></g></g><g class="djs-group"><g class="djs-element djs-connection" data-element-id="connection_6774" style="display: block;"><g class="djs-visual"><polyline points="-90,148 -184,181 " style="stroke: rgb(0, 0, 0); fill: none; stroke-width: 1.5px; stroke-linejoin: round; marker-end: url('#activity-black-#000000-5tjjbq104r3jm8kew44rhv48a');"/><text lineHeight="1.2" wordWrap="break-word" overflowWrap="break-word" hyphens="auto" class="djs-label" style="font-family: Arial, sans-serif; font-size: 11px; font-weight: normal; fill: black;"><tspan x="-121.92531504043771" y="173.05189024262629">with</tspan></text></g><polyline points="-90,148 -184,181 " class="djs-hit" style="fill: none; stroke-opacity: 0; stroke: white; stroke-width: 15px;"/><rect x="-190" y="142" width="106" height="45" class="djs-outline" style="fill: none;"/></g></g><g class="djs-group"><g class="djs-element djs-connection" data-element-id="connection_2199" style="display: block;"><g class="djs-visual"><polyline points="-90,181 -181,294 " style="stroke: rgb(0, 0, 0); fill: none; stroke-width: 1.5px; stroke-linejoin: round; marker-end: url('#activity-black-#000000-5tjjbq104r3jm8kew44rhv48a');"/><text lineHeight="1.2" wordWrap="break-word" overflowWrap="break-word" hyphens="auto" class="djs-label" style="font-family: Arial, sans-serif; font-size: 11px; font-weight: normal; fill: black;"><tspan x="-118.65804620315146" y="235.44827721890866">and</tspan></text></g><polyline points="-90,181 -181,294 " class="djs-hit" style="fill: none; stroke-opacity: 0; stroke: white; stroke-width: 15px;"/><rect x="-187" y="175" width="103" height="125" class="djs-outline" style="fill: none;"/></g></g><g class="djs-group"><g class="djs-element djs-connection" data-element-id="connection_0739" style="display: block;"><g class="djs-visual"><polyline points="-59,181 -82,339 " style="stroke: rgb(0, 0, 0); fill: none; stroke-width: 1.5px; stroke-linejoin: round; marker-end: url('#activity-black-#000000-5tjjbq104r3jm8kew44rhv48a');"/><text lineHeight="1.2" wordWrap="break-word" overflowWrap="break-word" hyphens="auto" class="djs-label" style="font-family: Arial, sans-serif; font-size: 11px; font-weight: normal; fill: black;"><tspan x="-51.9601305231684" y="247.76078313901044">and</tspan></text></g><polyline points="-59,181 -82,339 " class="djs-hit" style="fill: none; stroke-opacity: 0; stroke: white; stroke-width: 15px;"/><rect x="-88" y="175" width="35" height="170" class="djs-outline" style="fill: none;"/></g></g><g class="djs-group"><g class="djs-element djs-connection" data-element-id="connection_8587" style="display: block;"><g class="djs-visual"><polyline points="-40,178.75 10,346 " style="stroke: rgb(0, 0, 0); fill: none; stroke-width: 1.5px; stroke-linejoin: round; marker-end: url('#activity-black-#000000-5tjjbq104r3jm8kew44rhv48a');"/><text lineHeight="1.2" wordWrap="break-word" overflowWrap="break-word" hyphens="auto" class="djs-label" style="font-family: Arial, sans-serif; font-size: 11px; font-weight: normal; fill: black;"><tspan x="1.225962045439255" y="260.52564136362616">and</tspan></text></g><polyline points="-40,178.75 10,346 " class="djs-hit" style="fill: none; stroke-opacity: 0; stroke: white; stroke-width: 15px;"/><rect x="-46" y="168" width="62" height="184" class="djs-outline" style="fill: none;"/></g></g><g class="djs-group"><g class="djs-element djs-shape" data-element-id="shape_7077" style="display: block;" transform="matrix(1 0 0 1 695 -8)"><g class="djs-visual"><svg xmlns="http://www.w3.org/2000/svg" viewBox="0 0 24 26" width="75" height="75"><path d="M12 5.9c1.16 0 2.1.94 2.1 2.1s-.94 2.1-2.1 2.1S9.9 9.16 9.9 8s.94-2.1 2.1-2.1m0 9c2.97 0 6.1 1.46 6.1 2.1v1.1H5.9V17c0-.64 3.13-2.1 6.1-2.1M12 4C9.79 4 8 5.79 8 8s1.79 4 4 4 4-1.79 4-4-1.79-4-4-4zm0 9c-2.67 0-8 1.34-8 4v3h16v-3c0-2.66-5.33-4-8-4z"/><path d="M0 0h24v24H0z" fill="none"/></svg><text lineHeight="1.2" class="djs-label" style="font-family: Arial, sans-serif; font-size: 12px; font-weight: normal; fill: rgb(0, 0, 0);"><tspan x="11.40625" y="75">Customer</tspan></text></g><rect x="0" y="0" width="75" height="75" class="djs-hit" style="fill: none; stroke-opacity: 0; stroke: white; stroke-width: 15px;"/><rect x="-6" y="-6" width="87" height="87" class="djs-outline" style="fill: none;"/></g></g><g class="djs-group"><g class="djs-element djs-connection" data-element-id="connection_5424" style="display: block;"><g class="djs-visual"><polyline points="703,77 567,291 " style="stroke: rgb(0, 0, 0); fill: none; stroke-width: 1.5px; stroke-linejoin: round; marker-end: url('#activity-black-#000000-5tjjbq104r3jm8kew44rhv48a');"/><text lineHeight="1.2" wordWrap="break-word" overflowWrap="break-word" hyphens="auto" class="djs-label" style="font-family: Arial, sans-serif; font-size: 11px; font-weight: normal; fill: black;"><tspan x="652.1979705221399" y="179.81217686716053">signs</tspan></text><text lineHeight="1.2" position="absolute" class="djs-labelNumber" style="font-family: Courier; font-size: 150px; font-weight: normal; fill: rgb(66, 174, 187);"><tspan x="587.1979705221399" y="160.81217686716053">.</tspan></text><text lineHeight="1.2" backgroundColor="green" position="absolute" class="djs-labelNumber" style="font-family: Arial, sans-serif; font-size: 11px; font-weight: normal; fill: black;"><tspan x="626.1979705221399" y="155.81217686716053">04</tspan></text></g><polyline points="703,77 567,291 " class="djs-hit" style="fill: none; stroke-opacity: 0; stroke: white; stroke-width: 15px;"/><rect x="561" y="71" width="148" height="226" class="djs-outline" style="fill: none;"/></g></g><g class="djs-group"><g class="djs-element djs-connection" data-element-id="connection_7417" style="display: block;"><g class="djs-visual"><polyline points="155,121 146,419 " style="stroke: rgb(0, 0, 0); fill: none; stroke-width: 1.5px; stroke-linejoin: round; marker-end: url('#activity-black-#000000-5tjjbq104r3jm8kew44rhv48a');"/><text lineHeight="1.2" wordWrap="break-word" overflowWrap="break-word" hyphens="auto" class="djs-label" style="font-family: Arial, sans-serif; font-size: 11px; font-weight: normal; fill: black;"><tspan x="169.40389535434372" y="255.5766278739377">calculates</tspan></text><text lineHeight="1.2" position="absolute" class="djs-labelNumber" style="font-family: Courier; font-size: 150px; font-weight: normal; fill: rgb(66, 174, 187);"><tspan x="104.40389535434372" y="236.5766278739377">.</tspan></text><text lineHeight="1.2" backgroundColor="green" position="absolute" class="djs-labelNumber" style="font-family: Arial, sans-serif; font-size: 11px; font-weight: normal; fill: black;"><tspan x="143.40389535434372" y="231.5766278739377">02</tspan></text></g><polyline points="155,121 146,419 " class="djs-hit" style="fill: none; stroke-opacity: 0; stroke: white; stroke-width: 15px;"/><rect x="140" y="115" width="21" height="310" class="djs-outline" style="fill: none;"/></g></g><g class="djs-group"><g class="djs-element djs-connection" data-element-id="connection_1624" style="display: block;"><g class="djs-visual"><polyline points="180,450 252,434 " style="stroke: rgb(0, 0, 0); fill: none; stroke-width: 1.5px; stroke-linejoin: round; marker-end: url('#activity-black-#000000-5tjjbq104r3jm8kew44rhv48a');"/><text lineHeight="1.2" wordWrap="break-word" overflowWrap="break-word" hyphens="auto" class="djs-label" style="font-family: Arial, sans-serif; font-size: 11px; font-weight: normal; fill: black;"><tspan x="232.91186538180807" y="454.91186538180807">for</tspan></text></g><polyline points="180,450 252,434 " class="djs-hit" style="fill: none; stroke-opacity: 0; stroke: white; stroke-width: 15px;"/><rect x="174" y="428" width="84" height="28" class="djs-outline" style="fill: none;"/></g></g><g class="djs-group"><g class="djs-element djs-connection" data-element-id="connection_6429" style="display: block;"><g class="djs-visual"><polyline points="264,473 213,565 " style="stroke: rgb(0, 0, 0); fill: none; stroke-width: 1.5px; stroke-linejoin: round; marker-end: url('#activity-black-#000000-5tjjbq104r3jm8kew44rhv48a');"/><text lineHeight="1.2" wordWrap="break-word" overflowWrap="break-word" hyphens="auto" class="djs-label" style="font-family: Arial, sans-serif; font-size: 11px; font-weight: normal; fill: black;"><tspan x="255.88879447645067" y="513.667233141296">from</tspan></text></g><polyline points="264,473 213,565 " class="djs-hit" style="fill: none; stroke-opacity: 0; stroke: white; stroke-width: 15px;"/><rect x="207" y="467" width="63" height="104" class="djs-outline" style="fill: none;"/></g></g><g class="djs-group"><g class="djs-element djs-connection" data-element-id="connection_0124" style="display: block;"><g class="djs-visual"><polyline points="296,472 306,554 " style="stroke: rgb(0, 0, 0); fill: none; stroke-width: 1.5px; stroke-linejoin: round; marker-end: url('#activity-black-#000000-5tjjbq104r3jm8kew44rhv48a');"/><text lineHeight="1.2" wordWrap="break-word" overflowWrap="break-word" hyphens="auto" class="djs-label" style="font-family: Arial, sans-serif; font-size: 11px; font-weight: normal; fill: black;"><tspan x="318.84117375530434" y="512.2274491702029">and</tspan></text></g><polyline points="296,472 306,554 " class="djs-hit" style="fill: none; stroke-opacity: 0; stroke: white; stroke-width: 15px;"/><rect x="290" y="466" width="22" height="94" class="djs-outline" style="fill: none;"/></g></g><g class="djs-group"><g class="djs-element djs-connection" data-element-id="connection_8998" style="display: block;"><g class="djs-visual"><polyline points="188,93 512,286 " style="stroke: rgb(0, 0, 0); fill: none; stroke-width: 1.5px; stroke-linejoin: round; marker-end: url('#activity-black-#000000-5tjjbq104r3jm8kew44rhv48a');"/><text lineHeight="1.2" wordWrap="break-word" overflowWrap="break-word" hyphens="auto" class="djs-label" style="font-family: Arial, sans-serif; font-size: 11px; font-weight: normal; fill: black;"><tspan x="359.13022824860815" y="182.92015216573876">shows and offers</tspan></text><text lineHeight="1.2" position="absolute" class="djs-labelNumber" style="font-family: Courier; font-size: 150px; font-weight: normal; fill: rgb(66, 174, 187);"><tspan x="294.13022824860815" y="163.92015216573876">.</tspan></text><text lineHeight="1.2" backgroundColor="green" position="absolute" class="djs-labelNumber" style="font-family: Arial, sans-serif; font-size: 11px; font-weight: normal; fill: black;"><tspan x="333.13022824860815" y="158.92015216573876">03</tspan></text></g><polyline points="188,93 512,286 " class="djs-hit" style="fill: none; stroke-opacity: 0; stroke: white; stroke-width: 15px;"/><rect x="182" y="87" width="336" height="205" class="djs-outline" style="fill: none;"/></g></g><g class="djs-group"><g class="djs-element djs-shape" data-element-id="shape_1006" style="display: block;" transform="matrix(1 0 0 1 512 279)"><g class="djs-visual"><svg xmlns="http://www.w3.org/2000/svg" width="48.75" height="48.75" viewBox="0 0 24 26" x="12.5" y="12.5"><path fill="none" d="M0 0h24v24H0V0z"/><path d="M8 16h8v2H8zm0-4h8v2H8zm6-10H6c-1.1 0-2 .9-2 2v16c0 1.1.89 2 1.99 2H18c1.1 0 2-.9 2-2V8l-6-6zm4 18H6V4h7v5h5v11z"/></svg><text lineHeight="1.2" class="djs-label" style="font-family: Arial, sans-serif; font-size: 12px; font-weight: normal; fill: rgb(0, 0, 0);"><tspan x="14.8203125" y="74.75">Contract</tspan></text></g><rect x="0" y="0" width="75" height="75" class="djs-hit" style="fill: none; stroke-opacity: 0; stroke: white; stroke-width: 15px;"/><rect x="-6" y="-6" width="87" height="87" class="djs-outline" style="fill: none;"/></g></g><g class="djs-group"><g class="djs-element djs-shape" data-element-id="shape_7922" style="display: block;" transform="matrix(1 0 0 1 118 36)"><g class="djs-visual"><svg xmlns="http://www.w3.org/2000/svg" viewBox="0 0 24 26" width="75" height="75"><path d="M12 5.9c1.16 0 2.1.94 2.1 2.1s-.94 2.1-2.1 2.1S9.9 9.16 9.9 8s.94-2.1 2.1-2.1m0 9c2.97 0 6.1 1.46 6.1 2.1v1.1H5.9V17c0-.64 3.13-2.1 6.1-2.1M12 4C9.79 4 8 5.79 8 8s1.79 4 4 4 4-1.79 4-4-1.79-4-4-4zm0 9c-2.67 0-8 1.34-8 4v3h16v-3c0-2.66-5.33-4-8-4z"/><path d="M0 0h24v24H0z" fill="none"/></svg><text lineHeight="1.2" class="djs-label" style="font-family: Arial, sans-serif; font-size: 12px; font-weight: normal; fill: rgb(0, 0, 0);"><tspan x="4.140625" y="75">Salesperson</tspan></text></g><rect x="0" y="0" width="75" height="75" class="djs-hit" style="fill: none; stroke-opacity: 0; stroke: white; stroke-width: 15px;"/><rect x="-6" y="-6" width="87" height="87" class="djs-outline" style="fill: none;"/></g></g><g class="djs-group"><g class="djs-element djs-shape" data-element-id="shape_7401" style="display: block;" transform="matrix(1 0 0 1 -90 96)"><g class="djs-visual"><svg xmlns="http://www.w3.org/2000/svg" width="48.75" height="48.75" viewBox="0 0 24 26" x="12.5" y="12.5"><path fill="none" d="M0 0h24v24H0V0z"/><path d="M8 16h8v2H8zm0-4h8v2H8zm6-10H6c-1.1 0-2 .9-2 2v16c0 1.1.89 2 1.99 2H18c1.1 0 2-.9 2-2V8l-6-6zm4 18H6V4h7v5h5v11z"/></svg><text lineHeight="1.2" class="djs-label" style="font-family: Arial, sans-serif; font-size: 12px; font-weight: normal; fill: rgb(0, 0, 0);"><tspan x="14.8203125" y="74.75">Contract</tspan></text></g><rect x="0" y="0" width="75" height="75" class="djs-hit" style="fill: none; stroke-opacity: 0; stroke: white; stroke-width: 15px;"/><rect x="-6" y="-6" width="87" height="87" class="djs-outline" style="fill: none;"/></g></g><g class="djs-group"><g class="djs-element djs-shape" data-element-id="shape_0929" style="display: block;" transform="matrix(1 0 0 1 -253 154)"><g class="djs-visual"><svg xmlns="http://www.w3.org/2000/svg" height="48.75" viewBox="0 0 24 26" width="48.75" x="12.5" y="12.5"><path d="M0 0h24v24H0z" fill="none"/><path d="M11 17h2v-6h-2v6zm1-15C6.48 2 2 6.48 2 12s4.48 10 10 10 10-4.48 10-10S17.52 2 12 2zm0 18c-4.41 0-8-3.59-8-8s3.59-8 8-8 8 3.59 8 8-3.59 8-8 8zM11 9h2V7h-2v2z"/></svg><text lineHeight="1.2" class="djs-label" style="font-family: Arial, sans-serif; font-size: 12px; font-weight: normal; fill: rgb(0, 0, 0);"><tspan x="14.8203125" y="74.75">Contract </tspan><tspan x="17.0703125" y="88.75">number</tspan></text></g><rect x="0" y="0" width="75" height="75" class="djs-hit" style="fill: none; stroke-opacity: 0; stroke: white; stroke-width: 15px;"/><rect x="-6" y="-6" width="87" height="87" class="djs-outline" style="fill: none;"/></g></g><g class="djs-group"><g class="djs-element djs-shape" data-element-id="shape_7752" style="display: block;" transform="matrix(1 0 0 1 252 388)"><g class="djs-visual"><svg xmlns="http://www.w3.org/2000/svg" width="48.75" height="48.75" viewBox="0 0 24 26" x="12.5" y="12.5"><path fill="none" d="M0 0h24v24H0V0z"/><path d="M8 16h8v2H8zm0-4h8v2H8zm6-10H6c-1.1 0-2 .9-2 2v16c0 1.1.89 2 1.99 2H18c1.1 0 2-.9 2-2V8l-6-6zm4 18H6V4h7v5h5v11z"/></svg><text lineHeight="1.2" class="djs-label" style="font-family: Arial, sans-serif; font-size: 12px; font-weight: normal; fill: rgb(0, 0, 0);"><tspan x="16.15625" y="74.75">contract</tspan></text></g><rect x="0" y="0" width="75" height="75" class="djs-hit" style="fill: none; stroke-opacity: 0; stroke: white; stroke-width: 15px;"/><rect x="-6" y="-6" width="87" height="87" class="djs-outline" style="fill: none;"/></g></g><g class="djs-group"><g class="djs-element djs-shape" data-element-id="shape_0959" style="display: block;" transform="matrix(1 0 0 1 107 419)"><g class="djs-visual"><svg xmlns="http://www.w3.org/2000/svg" width="48.75" height="48.75" viewBox="0 0 24 26" x="12.5" y="12.5"><path fill="none" d="M0 0h24v24H0V0z"/><path d="M15 18.5c-2.51 0-4.68-1.42-5.76-3.5H15v-2H8.58c-.05-.33-.08-.66-.08-1s.03-.67.08-1H15V9H9.24C10.32 6.92 12.5 5.5 15 5.5c1.61 0 3.09.59 4.23 1.57L21 5.3C19.41 3.87 17.3 3 15 3c-3.92 0-7.24 2.51-8.48 6H3v2h3.06c-.04.33-.06.66-.06 1s.02.67.06 1H3v2h3.52c1.24 3.49 4.56 6 8.48 6 2.31 0 4.41-.87 6-2.3l-1.78-1.77c-1.13.98-2.6 1.57-4.22 1.57z"/></svg><text lineHeight="1.2" class="djs-label" style="font-family: Arial, sans-serif; font-size: 12px; font-weight: normal; fill: rgb(0, 0, 0);"><tspan x="8.8203125" y="74.75">installment</tspan></text></g><rect x="0" y="0" width="75" height="75" class="djs-hit" style="fill: none; stroke-opacity: 0; stroke: white; stroke-width: 15px;"/><rect x="-6" y="-6" width="87" height="87" class="djs-outline" style="fill: none;"/></g></g><g class="djs-group"><g class="djs-element djs-shape" data-element-id="shape_0103" style="display: block;" transform="matrix(1 0 0 1 160 554)"><g class="djs-visual"><svg xmlns="http://www.w3.org/2000/svg" width="48.75" height="48.75" viewBox="0 0 24 26" x="12.5" y="12.5"><path fill="none" d="M0 0h24v24H0V0z"/><path d="M15 18.5c-2.51 0-4.68-1.42-5.76-3.5H15v-2H8.58c-.05-.33-.08-.66-.08-1s.03-.67.08-1H15V9H9.24C10.32 6.92 12.5 5.5 15 5.5c1.61 0 3.09.59 4.23 1.57L21 5.3C19.41 3.87 17.3 3 15 3c-3.92 0-7.24 2.51-8.48 6H3v2h3.06c-.04.33-.06.66-.06 1s.02.67.06 1H3v2h3.52c1.24 3.49 4.56 6 8.48 6 2.31 0 4.41-.87 6-2.3l-1.78-1.77c-1.13.98-2.6 1.57-4.22 1.57z"/></svg><text lineHeight="1.2" class="djs-label" style="font-family: Arial, sans-serif; font-size: 12px; font-weight: normal; fill: rgb(0, 0, 0);"><tspan x="24.4921875" y="74.75">price</tspan></text></g><rect x="0" y="0" width="75" height="75" class="djs-hit" style="fill: none; stroke-opacity: 0; stroke: white; stroke-width: 15px;"/><rect x="-6" y="-6" width="87" height="87" class="djs-outline" style="fill: none;"/></g></g><g class="djs-group"><g class="djs-element djs-shape" data-element-id="shape_8738" style="display: block;" transform="matrix(1 0 0 1 273 554)"><g class="djs-visual"><svg xmlns="http://www.w3.org/2000/svg" width="48.75" height="48.75" viewBox="0 0 24 26" x="12.5" y="12.5"><path fill="none" d="M0 0h24v24H0V0z"/><path d="M19 3h-1V1h-2v2H8V1H6v2H5c-1.11 0-2 .9-2 2v14c0 1.1.89 2 2 2h14c1.1 0 2-.9 2-2V5c0-1.1-.9-2-2-2zm0 16H5V9h14v10zm0-12H5V5h14v2zM7 11h5v5H7z"/></svg><text lineHeight="1.2" class="djs-label" style="font-family: Arial, sans-serif; font-size: 12px; font-weight: normal; fill: rgb(0, 0, 0);"><tspan x="9.484375" y="74.75">lease term</tspan></text></g><rect x="0" y="0" width="75" height="75" class="djs-hit" style="fill: none; stroke-opacity: 0; stroke: white; stroke-width: 15px;"/><rect x="-6" y="-6" width="87" height="87" class="djs-outline" style="fill: none;"/></g></g><g class="djs-group"><g class="djs-element djs-connection" data-element-id="connection_8591" style="display: block;"><g class="djs-visual"><polyline points="318,464.25 398,518 " style="stroke: rgb(0, 0, 0); fill: none; stroke-width: 1.5px; stroke-linejoin: round; marker-end: url('#activity-black-#000000-5tjjbq104r3jm8kew44rhv48a');"/><text lineHeight="1.2" wordWrap="break-word" overflowWrap="break-word" hyphens="auto" class="djs-label" style="font-family: Arial, sans-serif; font-size: 11px; font-weight: normal; fill: black;"><tspan x="367.64936109389396" y="484.8912407292627">and</tspan></text></g><polyline points="318,464.25 398,518 " class="djs-hit" style="fill: none; stroke-opacity: 0; stroke: white; stroke-width: 15px;"/><rect x="312" y="453.5" width="92" height="70.5" class="djs-outline" style="fill: none;"/></g></g><g class="djs-group"><g class="djs-element djs-shape" data-element-id="shape_0261" style="display: block;" transform="matrix(1 0 0 1 398 512)"><g class="djs-visual"><svg xmlns="http://www.w3.org/2000/svg" height="48.75" viewBox="0 0 24 26" width="48.75" x="12.5" y="12.5"><path d="M0 0h24v24H0z" fill="none"/><path d="M11 17h2v-6h-2v6zm1-15C6.48 2 2 6.48 2 12s4.48 10 10 10 10-4.48 10-10S17.52 2 12 2zm0 18c-4.41 0-8-3.59-8-8s3.59-8 8-8 8 3.59 8 8-3.59 8-8 8zM11 9h2V7h-2v2z"/></svg><text lineHeight="1.2" class="djs-label" style="font-family: Arial, sans-serif; font-size: 12px; font-weight: normal; fill: rgb(0, 0, 0);"><tspan x="17.8203125" y="74.75">interest</tspan></text></g><rect x="0" y="0" width="75" height="75" class="djs-hit" style="fill: none; stroke-opacity: 0; stroke: white; stroke-width: 15px;"/><rect x="-6" y="-6" width="87" height="87" class="djs-outline" style="fill: none;"/></g></g><g class="djs-group"><g class="djs-element djs-shape" data-element-id="shape_3444" style="display: block;" transform="matrix(1 0 0 1 -238 279)"><g class="djs-visual"><svg xmlns="http://www.w3.org/2000/svg" height="48.75" viewBox="0 0 24 26" width="48.75" x="12.5" y="12.5"><path d="M0 0h24v24H0z" fill="none"/><path d="M11 17h2v-6h-2v6zm1-15C6.48 2 2 6.48 2 12s4.48 10 10 10 10-4.48 10-10S17.52 2 12 2zm0 18c-4.41 0-8-3.59-8-8s3.59-8 8-8 8 3.59 8 8-3.59 8-8 8zM11 9h2V7h-2v2z"/></svg><text lineHeight="1.2" class="djs-label" style="font-family: Arial, sans-serif; font-size: 12px; font-weight: normal; fill: rgb(0, 0, 0);"><tspan x="11.40625" y="74.75">Customer</tspan></text></g><rect x="0" y="0" width="75" height="75" class="djs-hit" style="fill: none; stroke-opacity: 0; stroke: white; stroke-width: 15px;"/><rect x="-6" y="-6" width="87" height="87" class="djs-outline" style="fill: none;"/></g></g><g class="djs-group"><g class="djs-element djs-shape" data-element-id="shape_8588" style="display: block;" transform="matrix(1 0 0 1 -125 338)"><g class="djs-visual"><svg xmlns="http://www.w3.org/2000/svg" width="48.75" height="48.75" viewBox="0 0 24 26" x="12.5" y="12.5"><path fill="none" d="M0 0h24v24H0V0z"/><path d="M18.92 6.01C18.72 5.42 18.16 5 17.5 5h-11c-.66 0-1.21.42-1.42 1.01L3 12v8c0 .55.45 1 1 1h1c.55 0 1-.45 1-1v-1h12v1c0 .55.45 1 1 1h1c.55 0 1-.45 1-1v-8l-2.08-5.99zM6.85 7h10.29l1.08 3.11H5.77L6.85 7zM19 17H5v-5h14v5z"/><circle cx="7.5" cy="14.5" r="1.5"/><circle cx="16.5" cy="14.5" r="1.5"/></svg><text lineHeight="1.2" class="djs-label" style="font-family: Arial, sans-serif; font-size: 12px; font-weight: normal; fill: rgb(0, 0, 0);"><tspan x="27.75" y="74.75">Car</tspan></text></g><rect x="0" y="0" width="75" height="75" class="djs-hit" style="fill: none; stroke-opacity: 0; stroke: white; stroke-width: 15px;"/><rect x="-6" y="-6" width="87" height="87" class="djs-outline" style="fill: none;"/></g></g><g class="djs-group"><g class="djs-element djs-shape selected" data-element-id="shape_3958" style="display: block;" transform="matrix(1 0 0 1 -17 346)"><g class="djs-visual"><svg xmlns="http://www.w3.org/2000/svg" width="48.75" height="48.75" viewBox="0 0 24 26" x="12.5" y="12.5"><path fill="none" d="M0 0h24v24H0V0z"/><path d="M15 18.5c-2.51 0-4.68-1.42-5.76-3.5H15v-2H8.58c-.05-.33-.08-.66-.08-1s.03-.67.08-1H15V9H9.24C10.32 6.92 12.5 5.5 15 5.5c1.61 0 3.09.59 4.23 1.57L21 5.3C19.41 3.87 17.3 3 15 3c-3.92 0-7.24 2.51-8.48 6H3v2h3.06c-.04.33-.06.66-.06 1s.02.67.06 1H3v2h3.52c1.24 3.49 4.56 6 8.48 6 2.31 0 4.41-.87 6-2.3l-1.78-1.77c-1.13.98-2.6 1.57-4.22 1.57z"/></svg><text lineHeight="1.2" class="djs-label" style="font-family: Arial, sans-serif; font-size: 12px; font-weight: normal; fill: rgb(0, 0, 0);"><tspan x="23.828125" y="74.75">Price</tspan></text></g><rect x="0" y="0" width="75" height="75" class="djs-hit" style="fill: none; stroke-opacity: 0; stroke: white; stroke-width: 15px;"/><rect x="-6" y="-6" width="87" height="87" class="djs-outline" style="fill: none;"/></g></g><g class="djs-drag-group" style="pointer-events: none;" transform="matrix(1 0 0 1 -68 -27)"/><g class="djs-drag-group" style="pointer-events: none;" transform="matrix(1 0 0 1 14 9)"/><g class="djs-drag-group" style="pointer-events: none;" transform="matrix(1 0 0 1 -23 86)"/><g class="djs-drag-group" style="pointer-events: none;" transform="matrix(1 0 0 1 22 147)"/><g class="djs-drag-group" style="pointer-events: none;" transform="matrix(1 0 0 1 -65 -4)"/><g class="djs-drag-group" style="pointer-events: none;" transform="matrix(1 0 0 1 18 134)"/><g class="djs-drag-group" style="pointer-events: none;" transform="matrix(1 0 0 1 -61 19)"/><g class="djs-drag-group" style="pointer-events: none;" transform="matrix(1 0 0 1 -90 7)"/><g class="djs-drag-group" style="pointer-events: none;" transform="matrix(1 0 0 1 -45 2)"/><g class="djs-drag-group" style="pointer-events: none;" transform="matrix(1 0 0 1 -45 -25)"/><g class="djs-drag-group" style="pointer-events: none;" transform="matrix(1 0 0 1 -238 -203)"/><g class="djs-drag-group" style="pointer-events: none;" transform="matrix(1 0 0 1 -487 154)"/><g class="djs-drag-group" style="pointer-events: none;" transform="matrix(1 0 0 1 -448 227)"/><g class="djs-drag-group" style="pointer-events: none;" transform="matrix(1 0 0 1 -634 250)"/><g class="djs-drag-group" style="pointer-events: none;" transform="matrix(1 0 0 1 -675 177)"/><g class="djs-drag-group" style="pointer-events: none;" transform="matrix(1 0 0 1 -22 -123)"/><g class="djs-drag-group" style="pointer-events: none;" transform="matrix(1 0 0 1 42 0)"/><g class="djs-drag-group" style="pointer-events: none;" transform="matrix(1 0 0 1 -263 -101)"/><g class="djs-drag-group" style="pointer-events: none;" transform="matrix(1 0 0 1 45 310)"/><g class="djs-drag-group" style="pointer-events: none;" transform="matrix(1 0 0 1 29 -81)"/><g class="djs-drag-group" style="pointer-events: none;" transform="matrix(1 0 0 1 13 -109)"/><g class="djs-drag-group" style="pointer-events: none;" transform="matrix(1 0 0 1 40 -179)"/><g class="djs-drag-group" style="pointer-events: none;" transform="matrix(1 0 0 1 74 -289)"/><g class="djs-drag-group" style="pointer-events: none;" transform="matrix(1 0 0 1 38 -142)"/><g class="djs-drag-group" style="pointer-events: none;" transform="matrix(1 0 0 1 11 -162)"/><g class="djs-drag-group" style="pointer-events: none;" transform="matrix(1 0 0 1 -22 -46)"/><g class="djs-drag-group" style="pointer-events: none;" transform="matrix(1 0 0 1 -11 1)"/><g class="djs-drag-group" style="pointer-events: none;" transform="matrix(1 0 0 1 -8 -38)"/><g class="djs-drag-group" style="pointer-events: none;" transform="matrix(1 0 0 1 -51 5)"/><g class="djs-drag-group" style="pointer-events: none;" transform="matrix(1 0 0 1 -94 15)"/><g class="djs-drag-group" style="pointer-events: none;" transform="matrix(1 0 0 1 -4 20)"/><g class="djs-drag-group" style="pointer-events: none;" transform="matrix(1 0 0 1 219 49)"/><g class="djs-drag-group" style="pointer-events: none;" transform="matrix(1 0 0 1 -159 -109)"/><g class="djs-drag-group" style="pointer-events: none;" transform="matrix(1 0 0 1 58 -59)"/><g class="djs-drag-group" style="pointer-events: none;" transform="matrix(1 0 0 1 8 8)"/></svg>